<svg xmlns="http://www.w3.org/2000/svg" xmlns:xlink="http://www.w3.org/1999/xlink" width="500" zoomAndPan="magnify" viewBox="0 0 375 374.999991" height="500" preserveAspectRatio="xMidYMid meet" version="1.0"><defs><clipPath id="d5d8602879"><path d="M 70.144531 51.828125 L 304.894531 51.828125 L 304.894531 323.328125 L 70.144531 323.328125 Z M 70.144531 51.828125 " clip-rule="nonzero"/></clipPath><clipPath id="33f3149ef7"><path d="M 112.5 118.125 L 262.5 118.125 L 262.5 256.875 L 112.5 256.875 Z M 112.5 118.125 " clip-rule="nonzero"/></clipPath></defs><rect x="-37.5" width="450" fill="#ffffff" y="-37.499999" height="449.999989" fill-opacity="1"/><rect x="-37.5" width="450" fill="#ffde59" y="-37.499999" height="449.999989" fill-opacity="1"/><g clip-path="url(#d5d8602879)"><path fill="#000000" d="M 304.894531 147.820312 L 299.59375 147.820312 L 299.59375 122.851562 L 187.519531 58.070312 L 75.445312 122.851562 L 75.445312 147.820312 L 70.144531 147.820312 L 70.144531 119.777344 L 187.519531 51.972656 L 304.894531 119.777344 Z M 304.894531 255.382812 L 304.894531 227.339844 L 299.59375 227.339844 L 299.59375 252.308594 L 187.519531 317.035156 L 75.445312 252.308594 L 75.445312 227.339844 L 70.144531 227.339844 L 70.144531 255.382812 L 187.519531 323.183594 Z M 304.894531 255.382812 " fill-opacity="1" fill-rule="nonzero"/></g><g clip-path="url(#33f3149ef7)"><path fill="#000000" d="M 262.1875 147.664062 C 262.070312 147.234375 261.90625 146.800781 261.710938 146.390625 C 261.324219 145.570312 260.785156 144.792969 260.160156 144.167969 C 259.535156 143.53125 258.832031 143.015625 258.097656 142.59375 C 257.363281 142.171875 256.597656 141.859375 255.8125 141.613281 C 255.421875 141.492188 255.023438 141.394531 254.625 141.308594 C 254.246094 141.246094 253.871094 141.167969 253.503906 141.125 C 253.125 141.074219 252.746094 141.039062 252.371094 140.996094 C 252.1875 140.988281 251.992188 140.976562 251.808594 140.964844 C 251.625 140.953125 251.429688 140.941406 251.246094 140.941406 C 250.492188 140.921875 249.75 140.941406 249.003906 140.996094 C 247.527344 141.09375 246.070312 141.332031 244.65625 141.644531 C 241.828125 142.269531 239.152344 143.21875 236.566406 144.222656 C 235.269531 144.71875 233.996094 145.238281 232.722656 145.742188 L 231.773438 146.121094 L 230.804688 146.511719 L 229.832031 146.910156 L 229.347656 147.101562 L 228.871094 147.308594 L 226.953125 148.140625 L 225.054688 149.011719 L 224.578125 149.230469 L 224.117188 149.457031 L 223.175781 149.910156 L 222.238281 150.363281 L 221.308594 150.835938 L 220.382812 151.3125 L 219.917969 151.546875 L 219.464844 151.796875 L 217.632812 152.789062 L 215.820312 153.8125 L 215.367188 154.074219 L 214.921875 154.34375 L 213.132812 155.398438 L 212.25 155.949219 L 211.363281 156.5 L 210.921875 156.769531 L 210.480469 157.050781 L 208.730469 158.171875 L 207.003906 159.328125 C 204.707031 160.878906 202.453125 162.476562 200.230469 164.128906 L 198.589844 165.410156 C 198.039062 165.820312 197.5 166.253906 196.949219 166.671875 L 196.128906 167.308594 L 195.320312 167.957031 C 194.78125 168.386719 194.242188 168.820312 193.703125 169.25 C 193.121094 169.726562 192.539062 170.199219 191.964844 170.6875 C 191.265625 170.375 190.5625 170.0625 189.863281 169.746094 C 190.195312 169.414062 190.53125 169.078125 190.855469 168.746094 C 192.828125 166.683594 194.675781 164.460938 196.25 162.011719 C 197.035156 160.792969 197.757812 159.511719 198.394531 158.160156 C 199.023438 156.824219 199.5625 155.410156 199.949219 153.953125 C 200.003906 153.769531 200.046875 153.585938 200.089844 153.402344 L 200.21875 152.851562 C 200.304688 152.488281 200.359375 152.109375 200.433594 151.730469 C 200.488281 151.355469 200.542969 150.976562 200.585938 150.589844 L 200.640625 149.996094 L 200.671875 149.402344 C 200.714844 147.824219 200.53125 146.261719 200.15625 144.742188 C 199.765625 143.230469 199.183594 141.753906 198.375 140.382812 C 197.566406 139.011719 196.519531 137.75 195.234375 136.714844 C 195.117188 136.617188 194.996094 136.53125 194.878906 136.445312 C 197.4375 132.875 200.660156 129.84375 204.265625 127.5 C 208.589844 124.683594 213.488281 122.863281 218.429688 122.246094 L 217.640625 118.191406 C 214.914062 118.902344 212.292969 119.925781 209.84375 121.222656 C 207.394531 122.515625 205.105469 124.070312 203.023438 125.851562 C 200.941406 127.621094 199.074219 129.617188 197.457031 131.773438 C 196.390625 133.199219 195.429688 134.695312 194.597656 136.25 C 193.464844 135.453125 192.183594 134.835938 190.832031 134.480469 C 189.238281 134.070312 187.585938 133.941406 186 134.136719 C 183.929688 134.363281 181.933594 135.054688 180.175781 136.121094 C 179.355469 134.609375 178.425781 133.164062 177.390625 131.785156 C 175.773438 129.625 173.90625 127.640625 171.824219 125.859375 C 169.742188 124.09375 167.457031 122.527344 165.007812 121.234375 C 162.558594 119.9375 159.9375 118.914062 157.207031 118.203125 L 156.417969 122.257812 C 161.371094 122.871094 166.257812 124.695312 170.585938 127.511719 C 174.132812 129.820312 177.316406 132.796875 179.863281 136.316406 C 179.03125 136.84375 178.253906 137.457031 177.554688 138.160156 C 176.441406 139.28125 175.503906 140.542969 174.8125 141.925781 C 174.445312 142.605469 174.164062 143.316406 173.90625 144.027344 C 173.789062 144.394531 173.667969 144.75 173.574219 145.117188 C 173.527344 145.300781 173.476562 145.484375 173.433594 145.667969 L 173.3125 146.21875 C 173.269531 146.402344 173.238281 146.585938 173.214844 146.78125 C 173.183594 146.964844 173.152344 147.144531 173.128906 147.339844 L 173.066406 147.902344 C 173.054688 148 173.042969 148.085938 173.03125 148.183594 L 173.011719 148.460938 C 173 148.644531 172.988281 148.839844 172.980469 149.023438 L 172.980469 149.585938 C 172.980469 149.683594 172.980469 149.769531 172.980469 149.863281 L 172.988281 150.144531 L 173.011719 150.707031 C 173.042969 151.074219 173.066406 151.441406 173.128906 151.808594 L 173.207031 152.355469 L 173.3125 152.898438 C 173.335938 152.984375 173.347656 153.078125 173.367188 153.167969 L 173.433594 153.4375 L 173.5625 153.964844 L 173.710938 154.492188 C 173.734375 154.578125 173.765625 154.664062 173.789062 154.753906 L 174.046875 155.527344 L 174.242188 156.035156 L 174.339844 156.285156 L 174.445312 156.53125 L 174.660156 157.027344 L 174.898438 157.515625 L 175.019531 157.75 L 175.148438 157.988281 L 175.394531 158.453125 L 175.664062 158.90625 L 175.945312 159.359375 L 176.238281 159.800781 L 176.539062 160.234375 L 176.691406 160.449219 L 176.851562 160.652344 C 176.960938 160.792969 177.066406 160.933594 177.175781 161.0625 L 177.511719 161.460938 C 177.738281 161.730469 177.972656 161.980469 178.210938 162.226562 C 177.640625 160.964844 177.109375 159.703125 176.722656 158.421875 C 176.515625 157.785156 176.355469 157.136719 176.203125 156.488281 C 176.074219 155.84375 175.945312 155.195312 175.859375 154.546875 L 175.828125 154.308594 L 175.804688 154.074219 L 175.761719 153.585938 L 175.730469 153.101562 L 175.71875 152.863281 C 175.71875 152.789062 175.71875 152.703125 175.707031 152.625 C 175.675781 151.992188 175.707031 151.34375 175.75 150.71875 L 175.792969 150.253906 L 175.816406 150.015625 C 175.828125 149.941406 175.839844 149.863281 175.847656 149.777344 L 175.914062 149.316406 L 176 148.851562 L 176.042969 148.625 C 176.054688 148.550781 176.074219 148.472656 176.097656 148.398438 L 176.203125 147.945312 L 176.335938 147.503906 C 176.378906 147.351562 176.421875 147.199219 176.464844 147.058594 C 177.207031 144.707031 178.511719 142.59375 180.238281 141.03125 C 180.671875 140.652344 181.125 140.296875 181.609375 139.984375 L 181.792969 139.863281 C 181.859375 139.820312 181.921875 139.789062 181.976562 139.757812 L 182.355469 139.539062 C 182.484375 139.476562 182.613281 139.410156 182.742188 139.347656 C 182.871094 139.28125 183 139.21875 183.128906 139.164062 L 183.53125 138.992188 C 183.660156 138.9375 183.800781 138.894531 183.929688 138.839844 C 184.199219 138.730469 184.480469 138.667969 184.75 138.582031 C 185.300781 138.441406 185.859375 138.320312 186.433594 138.277344 C 187.554688 138.148438 188.6875 138.269531 189.734375 138.546875 C 190.769531 138.839844 191.730469 139.355469 192.570312 140.046875 C 193.410156 140.75 194.125 141.621094 194.707031 142.617188 C 195.277344 143.609375 195.710938 144.707031 195.980469 145.851562 C 196.25 146.996094 196.378906 148.171875 196.335938 149.335938 L 196.3125 149.769531 L 196.269531 150.199219 C 196.226562 150.5 196.183594 150.792969 196.140625 151.09375 C 196.078125 151.398438 196.035156 151.6875 195.957031 151.992188 L 195.851562 152.433594 C 195.816406 152.582031 195.785156 152.722656 195.730469 152.875 C 195.074219 155.238281 193.929688 157.515625 192.515625 159.640625 C 191.101562 161.773438 189.429688 163.78125 187.597656 165.648438 C 186.886719 166.382812 186.140625 167.09375 185.386719 167.796875 C 183.539062 166.953125 181.707031 166.101562 179.882812 165.226562 C 177.433594 164.050781 174.984375 162.863281 172.570312 161.636719 L 170.734375 160.707031 C 170.121094 160.394531 169.503906 160.082031 168.890625 159.78125 L 167.046875 158.851562 L 165.191406 157.945312 C 162.707031 156.738281 160.207031 155.5625 157.679688 154.4375 L 156.730469 154.019531 L 155.78125 153.609375 C 155.144531 153.339844 154.507812 153.058594 153.871094 152.789062 L 151.953125 152 C 151.628906 151.871094 151.304688 151.742188 150.980469 151.613281 L 150.011719 151.234375 L 149.039062 150.859375 C 148.714844 150.726562 148.394531 150.609375 148.058594 150.492188 C 147.410156 150.253906 146.753906 150.003906 146.105469 149.769531 L 144.132812 149.078125 L 143.636719 148.90625 L 143.140625 148.742188 L 142.144531 148.417969 C 140.828125 147.976562 139.480469 147.597656 138.144531 147.191406 C 136.796875 146.824219 135.457031 146.433594 134.085938 146.121094 L 133.074219 145.875 C 132.902344 145.832031 132.738281 145.789062 132.566406 145.753906 L 132.046875 145.648438 L 130 145.203125 C 129.296875 145.054688 128.574219 144.925781 127.851562 144.828125 C 127.117188 144.71875 126.382812 144.632812 125.628906 144.589844 C 124.117188 144.492188 122.554688 144.523438 120.925781 144.835938 C 120.117188 145 119.296875 145.246094 118.5 145.582031 C 117.699219 145.925781 116.914062 146.390625 116.199219 146.964844 C 115.488281 147.535156 114.875 148.203125 114.34375 148.957031 C 113.828125 149.714844 113.417969 150.535156 113.136719 151.363281 C 112.855469 152.207031 112.671875 153.046875 112.597656 153.878906 C 112.511719 154.710938 112.5 155.527344 112.554688 156.316406 C 112.652344 157.902344 112.953125 159.402344 113.351562 160.847656 C 113.558594 161.570312 113.785156 162.273438 114.019531 162.960938 L 114.386719 163.964844 C 114.507812 164.300781 114.648438 164.625 114.765625 164.957031 C 116.835938 170.242188 119.554688 175.261719 122.867188 179.878906 C 123.699219 181.03125 124.570312 182.175781 125.53125 183.289062 C 126.492188 184.386719 127.527344 185.464844 128.691406 186.449219 C 129.847656 187.429688 131.121094 188.324219 132.511719 189.058594 C 133.902344 189.792969 135.4375 190.332031 136.957031 190.667969 C 138.488281 191 140.03125 191.140625 141.542969 191.140625 C 143.050781 191.140625 144.53125 191.011719 145.976562 190.816406 C 147.421875 190.613281 148.824219 190.34375 150.203125 190.03125 C 150.550781 189.953125 150.894531 189.867188 151.230469 189.792969 L 152.242188 189.542969 L 153.257812 189.296875 L 154.273438 189.027344 C 159.667969 187.589844 165.007812 185.789062 170.121094 183.417969 C 172.675781 182.230469 175.179688 180.914062 177.605469 179.4375 L 179.410156 178.292969 C 179.992188 177.894531 180.585938 177.503906 181.167969 177.09375 C 182.320312 176.273438 183.453125 175.433594 184.554688 174.546875 C 185.179688 174.050781 185.796875 173.546875 186.398438 173.027344 C 187.058594 173.320312 187.714844 173.609375 188.363281 173.902344 C 185.96875 176.046875 183.660156 178.304688 181.480469 180.6875 C 179.59375 182.757812 177.8125 184.925781 176.171875 187.214844 C 175.773438 187.785156 175.351562 188.359375 174.976562 188.949219 C 174.585938 189.542969 174.199219 190.125 173.820312 190.730469 C 173.074219 191.929688 172.386719 193.160156 171.726562 194.421875 C 170.433594 196.933594 169.332031 199.554688 168.480469 202.265625 C 167.628906 204.972656 167.003906 207.753906 166.691406 210.59375 C 166.367188 213.429688 166.355469 216.308594 166.691406 219.15625 C 166.734375 219.515625 166.777344 219.871094 166.828125 220.226562 C 166.882812 220.582031 166.9375 220.9375 167.003906 221.285156 L 167.402344 223.355469 C 167.5625 224.046875 167.726562 224.726562 167.898438 225.414062 L 168.027344 225.933594 C 168.070312 226.105469 168.125 226.265625 168.179688 226.441406 L 168.480469 227.453125 C 169.289062 230.152344 170.304688 232.792969 171.5 235.339844 C 172.71875 237.875 174.113281 240.324219 175.65625 242.664062 L 176.238281 243.539062 C 176.335938 243.679688 176.429688 243.832031 176.527344 243.972656 L 176.832031 244.390625 C 177.242188 244.953125 177.640625 245.535156 178.058594 246.085938 L 179.34375 247.746094 C 179.453125 247.886719 179.558594 248.015625 179.667969 248.15625 L 180.003906 248.554688 L 180.671875 249.363281 C 182.460938 251.5 184.351562 253.539062 186.300781 255.515625 L 187.53125 256.808594 L 188.515625 255.265625 C 188.945312 254.585938 189.410156 253.90625 189.894531 253.226562 L 191.363281 251.175781 C 192.34375 249.808594 193.335938 248.414062 194.308594 247.011719 C 196.25 244.199219 198.105469 241.296875 199.753906 238.265625 C 200.585938 236.753906 201.363281 235.199219 202.074219 233.625 C 202.785156 232.050781 203.433594 230.433594 204.015625 228.792969 C 204.589844 227.152344 205.074219 225.46875 205.472656 223.777344 C 205.871094 222.070312 206.164062 220.34375 206.359375 218.609375 C 206.734375 215.132812 206.660156 211.59375 206.066406 208.144531 C 205.484375 204.691406 204.40625 201.347656 202.894531 198.21875 C 202.140625 196.652344 201.296875 195.144531 200.359375 193.699219 C 200.121094 193.332031 199.875 192.984375 199.636719 192.628906 C 199.519531 192.457031 199.398438 192.273438 199.269531 192.101562 L 198.890625 191.582031 L 198.515625 191.066406 C 198.386719 190.894531 198.265625 190.71875 198.125 190.546875 L 197.328125 189.542969 C 196.238281 188.21875 195.105469 186.945312 193.898438 185.734375 L 193.21875 185.054688 L 192.980469 184.839844 L 192.054688 183.964844 C 191.738281 183.675781 191.417969 183.394531 191.101562 183.113281 L 190.132812 182.285156 C 192.367188 184.839844 194.5 187.460938 196.367188 190.246094 L 197.058594 191.292969 C 197.175781 191.464844 197.285156 191.648438 197.394531 191.820312 L 197.714844 192.359375 L 198.039062 192.886719 C 198.148438 193.070312 198.246094 193.253906 198.351562 193.429688 C 198.558594 193.792969 198.773438 194.152344 198.96875 194.519531 L 199.550781 195.617188 C 199.648438 195.800781 199.746094 195.984375 199.832031 196.179688 L 200.101562 196.738281 L 200.371094 197.300781 L 200.617188 197.871094 L 200.867188 198.445312 L 200.996094 198.726562 L 201.113281 199.015625 C 201.761719 200.539062 202.28125 202.113281 202.722656 203.699219 C 203.164062 205.285156 203.5 206.890625 203.726562 208.519531 C 204.179688 211.769531 204.15625 215.070312 203.714844 218.316406 C 203.5 219.945312 203.1875 221.554688 202.777344 223.140625 C 202.378906 224.734375 201.882812 226.300781 201.308594 227.851562 C 200.175781 230.949219 198.753906 233.949219 197.132812 236.851562 C 195.515625 239.753906 193.726562 242.570312 191.828125 245.339844 C 190.875 246.734375 189.917969 248.101562 188.945312 249.496094 C 188.460938 250.195312 187.976562 250.886719 187.5 251.609375 C 187.359375 251.824219 187.207031 252.039062 187.070312 252.257812 C 185.632812 250.722656 184.242188 249.148438 182.914062 247.53125 L 182.277344 246.742188 L 181.964844 246.355469 C 181.859375 246.226562 181.75 246.097656 181.652344 245.957031 L 180.445312 244.347656 C 179.667969 243.257812 178.890625 242.167969 178.167969 241.035156 C 176.722656 238.792969 175.417969 236.453125 174.285156 234.046875 C 173.171875 231.628906 172.246094 229.136719 171.5 226.582031 L 171.230469 225.621094 C 171.1875 225.457031 171.132812 225.296875 171.101562 225.144531 L 170.992188 224.660156 C 170.84375 224.011719 170.691406 223.367188 170.539062 222.71875 L 170.175781 220.753906 C 170.109375 220.429688 170.066406 220.105469 170.023438 219.785156 C 169.96875 219.460938 169.9375 219.136719 169.90625 218.8125 C 169.625 216.222656 169.65625 213.589844 169.96875 210.992188 C 170.28125 208.390625 170.875 205.8125 171.683594 203.308594 C 172.503906 200.808594 173.539062 198.359375 174.769531 196.015625 C 175.386719 194.839844 176.042969 193.699219 176.753906 192.574219 C 177.101562 192.015625 177.476562 191.464844 177.84375 190.914062 C 178.199219 190.351562 178.609375 189.824219 178.988281 189.285156 C 180.550781 187.136719 182.269531 185.078125 184.082031 183.113281 C 186.550781 180.4375 189.214844 177.925781 192 175.53125 C 192.34375 175.679688 192.699219 175.832031 193.046875 175.984375 L 208.128906 182.476562 L 210.015625 183.296875 C 210.664062 183.578125 211.320312 183.835938 211.96875 184.105469 C 213.285156 184.625 214.621094 185.097656 215.980469 185.519531 C 218.710938 186.363281 221.527344 187 224.4375 187.269531 C 227.339844 187.527344 230.328125 187.40625 233.242188 186.773438 C 236.144531 186.136719 238.949219 184.980469 241.453125 183.40625 C 242.703125 182.617188 243.878906 181.734375 244.992188 180.773438 C 245.261719 180.535156 245.539062 180.289062 245.8125 180.050781 L 246.597656 179.296875 C 246.726562 179.164062 246.855469 179.046875 246.988281 178.917969 L 247.363281 178.53125 L 248.109375 177.742188 L 248.820312 176.933594 L 249.175781 176.523438 L 249.523438 176.101562 L 250.203125 175.269531 L 250.847656 174.417969 L 251.171875 173.988281 C 251.28125 173.847656 251.378906 173.695312 251.484375 173.554688 L 252.101562 172.683594 C 252.304688 172.390625 252.5 172.089844 252.695312 171.796875 C 252.886719 171.507812 253.09375 171.214844 253.277344 170.914062 C 254.796875 168.527344 256.15625 166.078125 257.429688 163.621094 C 258.078125 162.390625 258.679688 161.160156 259.296875 159.917969 L 260.214844 158.0625 C 260.527344 157.425781 260.828125 156.769531 261.109375 156.089844 C 261.667969 154.730469 262.175781 153.273438 262.390625 151.65625 C 262.445312 151.246094 262.480469 150.835938 262.488281 150.40625 C 262.5 149.984375 262.480469 149.542969 262.425781 149.109375 C 262.390625 148.539062 262.304688 148.105469 262.1875 147.664062 Z M 181.683594 170.835938 C 180.636719 171.65625 179.582031 172.445312 178.492188 173.1875 C 177.941406 173.554688 177.402344 173.921875 176.851562 174.289062 L 175.179688 175.335938 C 172.914062 176.695312 170.5625 177.925781 168.15625 179.027344 C 163.324219 181.226562 158.242188 182.941406 153.054688 184.289062 L 152.082031 184.550781 L 151.101562 184.785156 L 150.117188 185.023438 C 149.796875 185.097656 149.472656 185.175781 149.148438 185.25 C 147.851562 185.542969 146.570312 185.789062 145.308594 185.960938 C 142.773438 186.320312 140.28125 186.371094 137.992188 185.867188 L 137.777344 185.824219 C 137.703125 185.8125 137.636719 185.789062 137.5625 185.769531 L 137.140625 185.648438 C 136.859375 185.585938 136.589844 185.476562 136.320312 185.378906 C 136.039062 185.292969 135.792969 185.164062 135.523438 185.066406 C 135.394531 185.011719 135.261719 184.949219 135.132812 184.882812 C 135.003906 184.820312 134.875 184.753906 134.746094 184.691406 C 133.71875 184.148438 132.738281 183.460938 131.800781 182.671875 C 130.871094 181.882812 130 180.988281 129.15625 180.027344 C 128.316406 179.070312 127.527344 178.042969 126.761719 176.976562 C 123.6875 172.691406 121.128906 168.03125 119.199219 163.125 C 119.082031 162.8125 118.960938 162.507812 118.84375 162.195312 L 118.5 161.269531 C 118.28125 160.675781 118.089844 160.070312 117.914062 159.476562 C 117.582031 158.28125 117.34375 157.082031 117.269531 155.9375 C 117.191406 154.796875 117.289062 153.707031 117.59375 152.789062 C 117.742188 152.324219 117.957031 151.914062 118.207031 151.539062 C 118.464844 151.160156 118.777344 150.824219 119.136719 150.535156 C 119.492188 150.242188 119.902344 150.003906 120.355469 149.800781 C 120.808594 149.605469 121.304688 149.445312 121.84375 149.335938 C 122.371094 149.230469 122.941406 149.164062 123.527344 149.132812 C 124.109375 149.097656 124.710938 149.109375 125.316406 149.152344 C 125.929688 149.183594 126.546875 149.261719 127.171875 149.347656 C 127.796875 149.433594 128.421875 149.542969 129.070312 149.683594 L 131.035156 150.101562 L 131.519531 150.210938 C 131.679688 150.242188 131.84375 150.285156 132.003906 150.328125 L 132.976562 150.566406 C 134.28125 150.867188 135.574219 151.234375 136.871094 151.570312 C 138.15625 151.949219 139.449219 152.3125 140.722656 152.734375 L 141.683594 153.035156 L 142.15625 153.1875 L 142.632812 153.351562 L 144.542969 154.007812 C 145.175781 154.234375 145.804688 154.472656 146.441406 154.699219 C 146.753906 154.816406 147.078125 154.925781 147.390625 155.042969 L 149.265625 155.777344 C 149.578125 155.894531 149.890625 156.015625 150.203125 156.144531 L 152.082031 156.898438 C 152.707031 157.15625 153.324219 157.425781 153.949219 157.6875 L 154.886719 158.085938 L 155.816406 158.496094 C 158.296875 159.574219 160.757812 160.71875 163.203125 161.894531 L 165.039062 162.777344 L 166.871094 163.683594 C 167.488281 163.988281 168.09375 164.289062 168.695312 164.601562 L 170.53125 165.519531 C 172.988281 166.769531 175.480469 167.957031 177.972656 169.132812 C 179.203125 169.714844 180.445312 170.289062 181.683594 170.847656 C 181.707031 170.828125 181.695312 170.828125 181.683594 170.835938 Z M 258.453125 150.996094 C 258.304688 152.085938 257.925781 153.253906 257.429688 154.417969 C 257.179688 155 256.910156 155.582031 256.621094 156.175781 L 255.714844 158 C 255.097656 159.21875 254.496094 160.425781 253.871094 161.625 C 252.617188 164.019531 251.3125 166.359375 249.878906 168.582031 C 249.707031 168.863281 249.511719 169.132812 249.328125 169.414062 C 249.144531 169.683594 248.960938 169.964844 248.777344 170.234375 L 248.207031 171.03125 C 248.109375 171.160156 248.011719 171.300781 247.914062 171.429688 L 247.613281 171.820312 L 247.019531 172.597656 L 246.394531 173.351562 L 246.082031 173.730469 L 245.757812 174.09375 L 245.109375 174.828125 L 244.441406 175.53125 L 244.105469 175.875 C 244 175.996094 243.867188 176.101562 243.761719 176.210938 L 243.058594 176.878906 C 242.820312 177.09375 242.585938 177.300781 242.335938 177.515625 C 241.367188 178.347656 240.351562 179.101562 239.285156 179.769531 C 237.148438 181.109375 234.816406 182.058594 232.367188 182.585938 C 229.917969 183.113281 227.375 183.210938 224.839844 182.972656 C 222.292969 182.738281 219.746094 182.15625 217.242188 181.378906 C 215.992188 180.988281 214.75 180.546875 213.519531 180.050781 C 212.90625 179.800781 212.292969 179.554688 211.6875 179.285156 L 210.757812 178.875 L 209.820312 178.464844 L 195.675781 172.316406 C 195.773438 172.230469 195.882812 172.152344 195.980469 172.066406 C 204.4375 165.269531 213.425781 159.144531 223.046875 154.257812 L 223.941406 153.792969 L 224.847656 153.351562 L 225.753906 152.90625 L 226.207031 152.691406 L 226.671875 152.488281 L 228.507812 151.644531 L 230.363281 150.847656 L 230.824219 150.652344 L 231.289062 150.46875 L 232.226562 150.089844 L 233.167969 149.714844 L 234.125 149.335938 C 235.410156 148.828125 236.671875 148.324219 237.933594 147.847656 C 240.449219 146.886719 242.960938 146.023438 245.488281 145.472656 C 248 144.925781 250.535156 144.699219 252.953125 145.042969 C 253.253906 145.074219 253.554688 145.140625 253.847656 145.195312 C 254.117188 145.246094 254.386719 145.3125 254.644531 145.398438 C 255.164062 145.5625 255.671875 145.777344 256.125 146.035156 C 256.578125 146.292969 256.976562 146.605469 257.3125 146.953125 C 257.398438 147.039062 257.472656 147.125 257.546875 147.210938 L 257.65625 147.351562 C 257.6875 147.394531 257.730469 147.4375 257.753906 147.492188 C 257.816406 147.589844 257.882812 147.675781 257.9375 147.78125 L 258.023438 147.933594 L 258.097656 148.085938 C 258.195312 148.289062 258.28125 148.503906 258.335938 148.730469 C 258.402344 148.957031 258.445312 149.195312 258.476562 149.433594 C 258.496094 149.683594 258.507812 149.929688 258.507812 150.1875 C 258.507812 150.457031 258.488281 150.71875 258.453125 150.996094 Z M 258.453125 150.996094 " fill-opacity="1" fill-rule="nonzero"/></g></svg>